<svg width="90" height="17" viewBox="0 0 90 17" fill="none" xmlns="http://www.w3.org/2000/svg">
<g clip-path="url(#clip0_103181_506)">
<path d="M9 0L11.1 6.5H18L12.4 10.5L14.6 17L9 13L3.4 17L5.6 10.5L0 6.5H6.9L9 0Z" fill="#83B3D3"/>
</g>
<g clip-path="url(#clip1_103181_506)">
<path d="M33 0L35.1 6.5H42L36.4 10.5L38.6 17L33 13L27.4 17L29.6 10.5L24 6.5H30.9L33 0Z" fill="#83B3D3"/>
</g>
<g clip-path="url(#clip2_103181_506)">
<path d="M57 0L59.1 6.5H66L60.4 10.5L62.6 17L57 13L51.4 17L53.6 10.5L48 6.5H54.9L57 0Z" fill="#83B3D3"/>
</g>
<g clip-path="url(#clip3_103181_506)">
<path d="M81 0L83.1 6.5H90L84.4 10.5L86.6 17L81 13L75.4 17L77.6 10.5L72 6.5H78.9L81 0Z" fill="#83B3D3"/>
</g>
<defs>
<clipPath id="clip0_103181_506">
<rect width="18" height="17" fill="white"/>
</clipPath>
<clipPath id="clip1_103181_506">
<rect width="18" height="17" fill="white" transform="translate(24)"/>
</clipPath>
<clipPath id="clip2_103181_506">
<rect width="18" height="17" fill="white" transform="translate(48)"/>
</clipPath>
<clipPath id="clip3_103181_506">
<rect width="18" height="17" fill="white" transform="translate(72)"/>
</clipPath>
</defs>
</svg>
